<svg width="1155" height="655" viewBox="0 0 1155 655" fill="none" xmlns="http://www.w3.org/2000/svg">
<rect width="1155" height="655" fill="#0F172A"/>
<g clip-path="url(#clip0_2547_8750)">
<rect x="446.759" y="105.701" width="48.5977" height="48.5977" rx="24.2989" fill="white"/>
<path d="M500.364 130.414C476.673 134.289 467.665 151.056 466.123 158.943C463.647 158.221 461.372 157.126 460.524 156.567C469.112 136.297 490.678 130.6 500.364 130.414Z" fill="#191F4D"/>
<path d="M500.228 128.143C476.234 130.868 456.131 139.641 452.865 149.312C450.989 147.041 449.831 144.497 449.53 143.747C467.085 131.413 490.531 128.324 500.228 128.143Z" fill="#191F4D"/>
<line x1="468.701" y1="149.857" x2="468.701" y2="159.215" stroke="#191F4D" stroke-width="1.45369"/>
<line x1="473.243" y1="143.86" x2="473.243" y2="159.488" stroke="#191F4D" stroke-width="1.45369"/>
<line x1="477.786" y1="139.727" x2="477.786" y2="159.488" stroke="#191F4D" stroke-width="1.45369"/>
<line x1="482.329" y1="136.32" x2="482.329" y2="158.943" stroke="#191F4D" stroke-width="1.45369"/>
<line x1="486.872" y1="133.775" x2="486.872" y2="157.307" stroke="#191F4D" stroke-width="1.45369"/>
<line x1="491.415" y1="132.413" x2="491.415" y2="155.172" stroke="#191F4D" stroke-width="1.45369"/>
<line x1="495.957" y1="131.095" x2="495.957" y2="153.446" stroke="#191F4D" stroke-width="1.45369"/>
</g>
<path d="M518.349 148V136.004H528.179C535.954 136.004 541.675 131.394 541.675 123.397C541.675 115.4 535.954 110.79 528.179 110.79H512.351V148H518.349ZM528.901 116.177C533.788 116.177 535.732 118.065 535.732 123.397C535.732 128.729 533.788 130.617 528.901 130.617H518.349V116.177H528.901ZM555.922 148.555C561.309 148.555 564.253 145.667 565.586 142.502H565.808V148H571.361V120.398H565.363V135.948C565.363 141.391 562.753 143.39 558.144 143.39C553.367 143.39 551.479 141.336 551.479 136.393V120.398H545.481V137.448C545.481 143.724 548.702 148.555 555.922 148.555ZM583.265 148V130.006C583.265 126.341 584.598 124.952 588.208 124.952C591.707 124.952 592.762 126.285 592.762 129.95V131.061H598.76V129.228C598.76 124.063 596.538 119.843 590.763 119.843C586.708 119.843 584.154 122.064 583.043 124.619H582.765V120.231H577.267V148H583.265ZM614.869 148.555C622.311 148.555 627.253 144.89 627.253 139.225V138.725H621.311V139.17C621.311 141.669 619.534 143.224 614.924 143.224C609.148 143.224 607.316 140.669 607.093 135.615H627.142C627.309 134.782 627.476 133.283 627.476 131.839C627.476 124.286 622.255 119.843 614.813 119.843C606.594 119.843 601.484 125.619 601.484 134.171C601.484 142.78 605.761 148.555 614.869 148.555ZM614.702 124.897C619.423 124.897 621.977 126.896 621.755 131.617H607.149C607.482 127.34 609.482 124.897 614.702 124.897ZM638.698 148V126.007L638.364 119.787H638.864L641.086 126.007L649.472 145.779H656.692L665.022 126.007L667.355 119.787H667.744L667.521 126.007V148H673.464V110.79H664.967L656.636 131.228L653.415 140.114H652.971L649.694 131.228L641.197 110.79H632.7V148H638.698ZM705.601 148V142.613H685.774V110.79H679.776V148H705.601Z" fill="white"/>
<path d="M248.549 215C256.829 215 262.109 209.88 262.109 201.6C262.109 193.32 256.829 188.2 248.549 188.2H239.029V215H248.549ZM248.549 192.08C254.949 192.08 257.509 194.72 257.509 201.6C257.509 208.48 254.949 211.12 248.549 211.12H243.349V192.08H248.549ZM274.39 215.4C279.75 215.4 283.31 212.76 283.31 208.68V208.32H279.03V208.64C279.03 210.44 277.75 211.56 274.43 211.56C270.27 211.56 268.95 209.72 268.79 206.08H283.23C283.35 205.48 283.47 204.4 283.47 203.36C283.47 197.92 279.71 194.72 274.35 194.72C268.43 194.72 264.75 198.88 264.75 205.04C264.75 211.24 267.83 215.4 274.39 215.4ZM274.27 198.36C277.67 198.36 279.51 199.8 279.35 203.2H268.83C269.07 200.12 270.51 198.36 274.27 198.36ZM297.617 215L305.617 195.12H300.937L295.097 210.88H294.817L289.017 195.12H284.217L292.177 215H297.617ZM315.718 215.4C321.078 215.4 324.638 212.76 324.638 208.68V208.32H320.358V208.64C320.358 210.44 319.078 211.56 315.758 211.56C311.598 211.56 310.278 209.72 310.118 206.08H324.558C324.678 205.48 324.798 204.4 324.798 203.36C324.798 197.92 321.038 194.72 315.678 194.72C309.758 194.72 306.078 198.88 306.078 205.04C306.078 211.24 309.158 215.4 315.718 215.4ZM315.598 198.36C318.998 198.36 320.838 199.8 320.678 203.2H310.158C310.398 200.12 311.838 198.36 315.598 198.36ZM332.604 215V188.2H328.284V215H332.604ZM345.803 215.4C351.883 215.4 355.563 211.24 355.563 205.04C355.563 198.88 351.883 194.72 345.803 194.72C339.683 194.72 335.882 198.88 335.882 205.04C335.882 211.24 339.683 215.4 345.803 215.4ZM345.803 211.56C341.603 211.56 340.123 209.52 340.123 205.04C340.123 200.6 341.603 198.56 345.803 198.56C349.963 198.56 351.403 200.6 351.403 205.04C351.403 209.52 349.963 211.56 345.803 211.56ZM362.912 221.92V211.92H363.032C363.912 213.76 366.112 215.4 369.672 215.4C375.072 215.4 378.072 211.36 378.072 205.08C378.072 198.76 374.992 194.72 369.392 194.72C365.952 194.72 363.672 196.08 362.752 198.4H362.552V195.12H358.632V221.92H362.912ZM362.912 206.84V203.28C362.912 199.96 364.832 198.4 368.352 198.4C372.192 198.4 373.752 200.16 373.752 205.08C373.752 209.96 372.152 211.72 368.352 211.72C364.832 211.72 362.912 210.16 362.912 206.84ZM390.523 215.4C395.883 215.4 399.443 212.76 399.443 208.68V208.32H395.163V208.64C395.163 210.44 393.883 211.56 390.563 211.56C386.403 211.56 385.083 209.72 384.923 206.08H399.363C399.483 205.48 399.603 204.4 399.603 203.36C399.603 197.92 395.843 194.72 390.483 194.72C384.562 194.72 380.882 198.88 380.882 205.04C380.882 211.24 383.963 215.4 390.523 215.4ZM390.403 198.36C393.803 198.36 395.643 199.8 395.483 203.2H384.963C385.203 200.12 386.643 198.36 390.403 198.36ZM407.37 215V202.04C407.37 199.4 408.33 198.4 410.93 198.4C413.45 198.4 414.21 199.36 414.21 202V202.8H418.53V201.48C418.53 197.76 416.93 194.72 412.77 194.72C409.85 194.72 408.01 196.32 407.21 198.16H407.01V195H403.05V215H407.37ZM433.224 221.92V211.92H433.344C434.224 213.76 436.424 215.4 439.984 215.4C445.384 215.4 448.384 211.36 448.384 205.08C448.384 198.76 445.304 194.72 439.704 194.72C436.264 194.72 433.984 196.08 433.064 198.4H432.864V195.12H428.944V221.92H433.224ZM433.224 206.84V203.28C433.224 199.96 435.144 198.4 438.664 198.4C442.504 198.4 444.064 200.16 444.064 205.08C444.064 209.96 442.464 211.72 438.664 211.72C435.144 211.72 433.224 210.16 433.224 206.84ZM456.159 215V188.2H451.839V215H456.159ZM465.638 215.4C469.398 215.4 471.678 213.76 472.838 211.88H473.038V215H477.038V202.92C477.038 198.08 474.238 194.72 468.678 194.72C463.358 194.72 459.878 197.92 459.878 202.36V202.76H464.038V202.16C464.038 199.52 465.278 198.52 468.438 198.52C471.558 198.52 472.918 199.4 472.918 202.36V203.44L465.958 204.48C461.718 205.08 459.318 206.8 459.318 210.08C459.318 213.56 462.078 215.4 465.638 215.4ZM463.518 209.76C463.518 208.28 464.318 207.76 466.598 207.44L472.918 206.48V206.84C472.918 210.84 469.838 211.96 467.038 211.96C464.518 211.96 463.518 211.32 463.518 209.76ZM489.26 215C490.62 215 491.98 214.84 492.82 214.64V211.12H490.38C487.7 211.12 486.82 210.76 486.82 208.68V198.72H492.82V195.12H486.82V190.2H483.5L482.58 195.12H479.18V198.72H482.5V208.88C482.5 213.36 484.82 215 489.26 215ZM500.089 215V198.72H505.169V195.12H499.969V194.04C499.969 192.36 500.849 191.64 502.769 191.64H505.169V188.2H503.569C498.529 188.2 495.849 190.64 495.769 195.12H492.849V198.72H495.769V215H500.089ZM515.763 215.4C521.843 215.4 525.523 211.24 525.523 205.04C525.523 198.88 521.843 194.72 515.763 194.72C509.643 194.72 505.843 198.88 505.843 205.04C505.843 211.24 509.643 215.4 515.763 215.4ZM515.763 211.56C511.563 211.56 510.083 209.52 510.083 205.04C510.083 200.6 511.563 198.56 515.763 198.56C519.923 198.56 521.363 200.6 521.363 205.04C521.363 209.52 519.923 211.56 515.763 211.56ZM533.073 215V202.04C533.073 199.4 534.033 198.4 536.633 198.4C539.153 198.4 539.913 199.36 539.913 202V202.8H544.233V201.48C544.233 197.76 542.633 194.72 538.473 194.72C535.553 194.72 533.713 196.32 532.913 198.16H532.713V195H528.753V215H533.073ZM551.237 215V203.4C551.237 199.8 552.757 198.44 556.037 198.44C559.637 198.44 560.717 199.92 560.717 203.48V215H565.037V203.44C565.037 199.8 566.557 198.44 569.837 198.44C573.437 198.44 574.517 199.92 574.517 203.48V215H578.837V202.52C578.837 198 576.557 194.72 571.437 194.72C567.517 194.72 565.477 196.76 564.557 198.84H564.437C563.477 196.32 561.317 194.72 557.837 194.72C554.037 194.72 551.957 196.72 551.037 198.84H550.877V195.12H546.917V215H551.237ZM595.871 215V198.72H600.951V195.12H595.751V194.04C595.751 192.36 596.631 191.64 598.551 191.64H600.951V188.2H599.351C594.311 188.2 591.631 190.64 591.551 195.12H588.631V198.72H591.551V215H595.871ZM611.545 215.4C617.625 215.4 621.305 211.24 621.305 205.04C621.305 198.88 617.625 194.72 611.545 194.72C605.425 194.72 601.625 198.88 601.625 205.04C601.625 211.24 605.425 215.4 611.545 215.4ZM611.545 211.56C607.345 211.56 605.865 209.52 605.865 205.04C605.865 200.6 607.345 198.56 611.545 198.56C615.705 198.56 617.145 200.6 617.145 205.04C617.145 209.52 615.705 211.56 611.545 211.56ZM628.854 215V202.04C628.854 199.4 629.814 198.4 632.414 198.4C634.934 198.4 635.694 199.36 635.694 202V202.8H640.014V201.48C640.014 197.76 638.414 194.72 634.254 194.72C631.334 194.72 629.494 196.32 628.694 198.16H628.494V195H624.534V215H628.854ZM655.029 215V206.36H662.109C667.709 206.36 671.829 203.04 671.829 197.28C671.829 191.52 667.709 188.2 662.109 188.2H650.709V215H655.029ZM662.629 192.08C666.149 192.08 667.549 193.44 667.549 197.28C667.549 201.12 666.149 202.48 662.629 202.48H655.029V192.08H662.629ZM679.01 215V202.04C679.01 199.4 679.97 198.4 682.57 198.4C685.09 198.4 685.85 199.36 685.85 202V202.8H690.17V201.48C690.17 197.76 688.57 194.72 684.41 194.72C681.49 194.72 679.65 196.32 678.85 198.16H678.65V195H674.69V215H679.01ZM702.053 215.4C708.133 215.4 711.813 211.24 711.813 205.04C711.813 198.88 708.133 194.72 702.053 194.72C695.933 194.72 692.132 198.88 692.132 205.04C692.132 211.24 695.933 215.4 702.053 215.4ZM702.053 211.56C697.853 211.56 696.373 209.52 696.373 205.04C696.373 200.6 697.853 198.56 702.053 198.56C706.213 198.56 707.653 200.6 707.653 205.04C707.653 209.52 706.213 211.56 702.053 211.56ZM723.197 215.4C726.597 215.4 728.797 214 729.757 211.72H729.917V215H733.877V188.2H729.597V198.2H729.477C728.597 196.4 726.477 194.72 722.957 194.72C717.477 194.72 714.437 198.76 714.437 205.04C714.437 211.36 717.517 215.4 723.197 215.4ZM718.757 205.04C718.757 200.16 720.357 198.4 724.157 198.4C727.677 198.4 729.597 199.96 729.597 203.28V206.84C729.597 210.16 727.677 211.72 724.157 211.72C720.317 211.72 718.757 209.96 718.757 205.04ZM745.528 215.4C749.408 215.4 751.528 213.32 752.488 211.04H752.648V215H756.648V195.12H752.328V206.32C752.328 210.24 750.448 211.68 747.128 211.68C743.688 211.68 742.328 210.2 742.328 206.64V195.12H738.008V207.4C738.008 211.92 740.328 215.4 745.528 215.4ZM769.743 215.44C775.103 215.44 778.743 212.16 778.743 207.44V207.08H774.463V207.32C774.463 210.24 772.943 211.52 769.623 211.52C765.783 211.52 764.303 209.4 764.303 205.08C764.303 200.76 765.783 198.6 769.623 198.6C772.943 198.6 774.463 199.92 774.463 202.84V203.08H778.743V202.72C778.743 197.96 775.143 194.72 769.903 194.72C763.663 194.72 760.023 198.88 760.023 205.08C760.023 211.24 763.543 215.44 769.743 215.44ZM790.12 215C791.48 215 792.84 214.84 793.68 214.64V211.12H791.24C788.56 211.12 787.68 210.76 787.68 208.68V198.72H793.68V195.12H787.68V190.2H784.36L783.44 195.12H780.04V198.72H783.36V208.88C783.36 213.36 785.68 215 790.12 215ZM800.527 192.6V188.2H796.207L796.247 192.6H800.527ZM800.567 215V195H796.247V215H800.567ZM813.459 215.4C819.539 215.4 823.219 211.24 823.219 205.04C823.219 198.88 819.539 194.72 813.459 194.72C807.339 194.72 803.539 198.88 803.539 205.04C803.539 211.24 807.339 215.4 813.459 215.4ZM813.459 211.56C809.259 211.56 807.779 209.52 807.779 205.04C807.779 200.6 809.259 198.56 813.459 198.56C817.619 198.56 819.059 200.6 819.059 205.04C819.059 209.52 817.619 211.56 813.459 211.56ZM830.768 215V203.52C830.768 199.8 832.368 198.44 835.888 198.44C839.528 198.44 840.648 199.92 840.648 203.48V215H844.968V202.52C844.968 198 842.648 194.72 837.488 194.72C833.608 194.72 831.488 196.72 830.568 198.84H830.408V195.12H826.448V215H830.768ZM861.083 215V199.16L860.843 194.68H861.203L862.803 199.16L868.843 213.4H874.043L880.043 199.16L881.723 194.68H882.003L881.843 199.16V215H886.123V188.2H880.003L874.003 202.92L871.683 209.32H871.363L869.003 202.92L862.883 188.2H856.763V215H861.083ZM909.27 215V211.12H894.99V188.2H890.67V215H909.27ZM916.712 215V208.8H911.232V215H916.712Z" fill="#E2E8F0"/>
<path d="M182.075 378.735L174.514 375L147.425 388.386C146.232 388.972 144.768 388.972 143.575 388.386L116.486 375L108.925 378.735C108.34 379.024 107.854 379.44 107.516 379.941C107.178 380.441 107 381.009 107 381.587C107 382.166 107.178 382.733 107.516 383.234C107.854 383.735 108.34 384.151 108.925 384.44L143.575 401.56C144.768 402.147 146.232 402.147 147.425 401.56L182.075 384.44C182.66 384.151 183.146 383.735 183.484 383.234C183.822 382.733 184 382.166 184 381.587C184 381.009 183.822 380.441 183.484 379.941C183.146 379.44 182.66 379.024 182.075 378.735Z" fill="#94A3B8"/>
<g filter="url(#filter0_b_2547_8750)">
<path d="M182.075 365.873L174.514 362L147.425 375.881C146.232 376.489 144.768 376.489 143.575 375.881L116.486 362L108.925 365.873C108.34 366.173 107.854 366.604 107.516 367.124C107.178 367.643 107 368.232 107 368.831C107 369.431 107.178 370.02 107.516 370.539C107.854 371.058 108.34 371.49 108.925 371.789L143.575 389.544C144.768 390.152 146.232 390.152 147.425 389.544L182.075 371.789C182.66 371.49 183.146 371.058 183.484 370.539C183.822 370.02 184 369.431 184 368.831C184 368.232 183.822 367.643 183.484 367.124C183.146 366.604 182.66 366.173 182.075 365.873Z" fill="url(#paint0_linear_2547_8750)"/>
</g>
<g filter="url(#filter1_b_2547_8750)">
<path d="M145.5 377C144.822 377 144.16 376.848 143.575 376.56L108.925 359.359C108.34 359.068 107.854 358.651 107.516 358.147C107.178 357.644 107 357.074 107 356.493C107 355.912 107.178 355.341 107.516 354.838C107.854 354.335 108.34 353.918 108.925 353.627L143.575 336.439C144.768 335.854 146.232 335.854 147.425 336.439L182.075 353.627C182.66 353.918 183.146 354.335 183.484 354.838C183.822 355.341 184 355.912 184 356.493C184 357.074 183.822 357.644 183.484 358.147C183.146 358.651 182.66 359.068 182.075 359.359L147.425 376.56C146.839 376.849 146.175 377.001 145.5 377Z" fill="url(#paint1_linear_2547_8750)" fill-opacity="0.5"/>
<path d="M145.5 376.75H145.5C146.138 376.751 146.764 376.607 147.314 376.336L145.5 376.75ZM145.5 376.75C144.86 376.75 144.236 376.606 143.686 376.336C143.686 376.336 143.686 376.336 143.685 376.336L109.036 359.135L109.036 359.135C108.487 358.862 108.035 358.472 107.723 358.008C107.412 357.544 107.25 357.022 107.25 356.493C107.25 355.964 107.412 355.442 107.723 354.978C108.035 354.514 108.487 354.124 109.036 353.851C109.036 353.851 109.036 353.851 109.036 353.851L143.685 336.664C143.685 336.664 143.686 336.664 143.686 336.663C144.809 336.112 146.191 336.112 147.314 336.663C147.314 336.664 147.315 336.664 147.315 336.664L181.964 353.851C182.513 354.124 182.965 354.514 183.277 354.978C183.588 355.442 183.75 355.964 183.75 356.493C183.75 357.022 183.588 357.544 183.277 358.008C182.965 358.472 182.513 358.862 181.964 359.135L182.075 359.359L181.964 359.135L147.314 376.336L145.5 376.75ZM145.5 377C144.822 377 144.16 376.848 143.575 376.56L145.5 377Z" stroke="url(#paint2_linear_2547_8750)" stroke-width="0.5"/>
</g>
<path d="M399.075 378.735L391.514 375L364.425 388.386C363.232 388.972 361.768 388.972 360.575 388.386L333.486 375L325.925 378.735C325.34 379.024 324.854 379.44 324.516 379.941C324.178 380.441 324 381.009 324 381.587C324 382.166 324.178 382.733 324.516 383.234C324.854 383.735 325.34 384.151 325.925 384.44L360.575 401.56C361.768 402.147 363.232 402.147 364.425 401.56L399.075 384.44C399.66 384.151 400.146 383.735 400.484 383.234C400.822 382.733 401 382.166 401 381.587C401 381.009 400.822 380.441 400.484 379.941C400.146 379.44 399.66 379.024 399.075 378.735Z" fill="#94A3B8"/>
<g filter="url(#filter2_b_2547_8750)">
<path d="M399.075 365.873L391.514 362L364.425 375.881C363.232 376.489 361.768 376.489 360.575 375.881L333.486 362L325.925 365.873C325.34 366.173 324.854 366.604 324.516 367.124C324.178 367.643 324 368.232 324 368.831C324 369.431 324.178 370.02 324.516 370.539C324.854 371.058 325.34 371.49 325.925 371.789L360.575 389.544C361.768 390.152 363.232 390.152 364.425 389.544L399.075 371.789C399.66 371.49 400.146 371.058 400.484 370.539C400.822 370.02 401 369.431 401 368.831C401 368.232 400.822 367.643 400.484 367.124C400.146 366.604 399.66 366.173 399.075 365.873Z" fill="url(#paint3_linear_2547_8750)"/>
</g>
<g filter="url(#filter3_b_2547_8750)">
<path d="M362.5 377C361.822 377 361.16 376.848 360.575 376.56L325.925 359.359C325.34 359.068 324.854 358.651 324.516 358.147C324.178 357.644 324 357.074 324 356.493C324 355.912 324.178 355.341 324.516 354.838C324.854 354.335 325.34 353.918 325.925 353.627L360.575 336.439C361.768 335.854 363.232 335.854 364.425 336.439L399.075 353.627C399.66 353.918 400.146 354.335 400.484 354.838C400.822 355.341 401 355.912 401 356.493C401 357.074 400.822 357.644 400.484 358.147C400.146 358.651 399.66 359.068 399.075 359.359L364.425 376.56C363.839 376.849 363.175 377.001 362.5 377Z" fill="url(#paint4_linear_2547_8750)" fill-opacity="0.5"/>
<path d="M362.5 376.75H362.5C363.138 376.751 363.764 376.607 364.314 376.336L362.5 376.75ZM362.5 376.75C361.86 376.75 361.236 376.606 360.686 376.336C360.686 376.336 360.686 376.336 360.685 376.336L326.036 359.135L326.036 359.135C325.487 358.862 325.035 358.472 324.723 358.008C324.412 357.544 324.25 357.022 324.25 356.493C324.25 355.964 324.412 355.442 324.723 354.978C325.035 354.514 325.487 354.124 326.036 353.851C326.036 353.851 326.036 353.851 326.036 353.851L360.685 336.664C360.685 336.664 360.686 336.664 360.686 336.663C361.809 336.112 363.191 336.112 364.314 336.663C364.314 336.664 364.315 336.664 364.315 336.664L398.964 353.851C399.513 354.124 399.965 354.514 400.277 354.978C400.588 355.442 400.75 355.964 400.75 356.493C400.75 357.022 400.588 357.544 400.277 358.008C399.965 358.472 399.513 358.862 398.964 359.135L399.075 359.359L398.964 359.135L364.314 376.336L362.5 376.75ZM362.5 377C361.822 377 361.16 376.848 360.575 376.56L362.5 377Z" stroke="url(#paint5_linear_2547_8750)" stroke-width="0.5"/>
</g>
<g filter="url(#filter4_b_2547_8750)">
<mask id="path-21-inside-1_2547_8750" fill="white">
<path fill-rule="evenodd" clip-rule="evenodd" d="M398 405C406.837 405 414 397.837 414 389C414 380.163 406.837 373 398 373C389.163 373 382 380.163 382 389C382 397.837 389.163 405 398 405ZM389.691 390.021C389.494 390.217 389.494 390.535 389.691 390.731L394.981 395.984C395.176 396.177 395.491 396.177 395.686 395.984L406.976 384.773C407.173 384.578 407.173 384.259 406.976 384.064L405.586 382.683C405.391 382.49 405.076 382.49 404.881 382.683L395.686 391.813C395.491 392.007 395.176 392.007 394.981 391.813L391.786 388.641C391.591 388.447 391.276 388.447 391.081 388.641L389.691 390.021Z"/>
</mask>
<path fill-rule="evenodd" clip-rule="evenodd" d="M398 405C406.837 405 414 397.837 414 389C414 380.163 406.837 373 398 373C389.163 373 382 380.163 382 389C382 397.837 389.163 405 398 405ZM389.691 390.021C389.494 390.217 389.494 390.535 389.691 390.731L394.981 395.984C395.176 396.177 395.491 396.177 395.686 395.984L406.976 384.773C407.173 384.578 407.173 384.259 406.976 384.064L405.586 382.683C405.391 382.49 405.076 382.49 404.881 382.683L395.686 391.813C395.491 392.007 395.176 392.007 394.981 391.813L391.786 388.641C391.591 388.447 391.276 388.447 391.081 388.641L389.691 390.021Z" fill="url(#paint6_linear_2547_8750)" fill-opacity="0.5"/>
<path d="M391.786 388.641L391.433 388.995L391.786 388.641ZM391.081 388.641L391.433 388.995L391.081 388.641ZM395.686 391.813L396.038 392.168L395.686 391.813ZM394.981 391.813L394.629 392.168L394.981 391.813ZM405.586 382.683L405.233 383.038L405.586 382.683ZM406.976 384.773L406.624 384.418L406.976 384.773ZM406.976 384.064L407.328 383.709L406.976 384.064ZM389.691 390.731L390.043 390.376L389.691 390.731ZM394.981 395.984L395.333 395.629L394.981 395.984ZM395.686 395.984L395.333 395.629L395.686 395.984ZM413.5 389C413.5 397.56 406.56 404.5 398 404.5V405.5C407.113 405.5 414.5 398.113 414.5 389H413.5ZM398 373.5C406.56 373.5 413.5 380.44 413.5 389H414.5C414.5 379.887 407.113 372.5 398 372.5V373.5ZM382.5 389C382.5 380.44 389.44 373.5 398 373.5V372.5C388.887 372.5 381.5 379.887 381.5 389H382.5ZM398 404.5C389.44 404.5 382.5 397.56 382.5 389H381.5C381.5 398.113 388.887 405.5 398 405.5V404.5ZM395.333 395.629L390.043 390.376L389.338 391.086L394.629 396.338L395.333 395.629ZM406.624 384.418L395.333 395.629L396.038 396.338L407.328 385.128L406.624 384.418ZM405.233 383.038L406.624 384.418L407.328 383.709L405.938 382.328L405.233 383.038ZM396.038 392.168L405.233 383.038L404.529 382.328L395.333 391.459L396.038 392.168ZM391.433 388.995L394.629 392.168L395.333 391.459L392.138 388.286L391.433 388.995ZM390.043 390.376L391.433 388.995L390.729 388.286L389.338 389.666L390.043 390.376ZM392.138 388.286C391.748 387.899 391.119 387.899 390.729 388.286L391.433 388.995L392.138 388.286ZM395.333 391.459L394.629 392.168C395.019 392.555 395.648 392.555 396.038 392.168L395.333 391.459ZM405.938 382.328C405.548 381.941 404.919 381.941 404.529 382.328L405.233 383.038L405.938 382.328ZM407.328 385.128C407.722 384.737 407.722 384.1 407.328 383.709L406.624 384.418L407.328 385.128ZM390.043 390.376H390.043L389.338 389.666C388.944 390.057 388.944 390.694 389.338 391.086L390.043 390.376ZM394.629 396.338C395.019 396.726 395.648 396.726 396.038 396.338L395.333 395.629L395.333 395.629L394.629 396.338Z" fill="url(#paint7_linear_2547_8750)" mask="url(#path-21-inside-1_2547_8750)"/>
</g>
<g filter="url(#filter5_b_2547_8750)">
<path d="M1056.1 390.25C1056.1 402.428 1046.23 412.3 1034.05 412.3C1021.87 412.3 1012 402.428 1012 390.25C1012 378.072 1021.87 368.2 1034.05 368.2C1046.23 368.2 1056.1 378.072 1056.1 390.25Z" fill="url(#paint8_linear_2547_8750)" fill-opacity="0.25"/>
</g>
<g filter="url(#filter6_b_2547_8750)">
<path d="M1045.07 385.926C1041.34 383.764 1036.79 384.344 1033.72 387.051L1029.06 384.353V371.02C1029.06 369.64 1028.32 368.356 1027.13 367.671L1015.17 360.789V354.892C1019.06 353.573 1021.85 349.899 1021.85 345.566C1021.85 340.126 1017.45 335.723 1012.01 335.723C1006.57 335.723 1002.17 340.126 1002.17 345.566C1002.17 349.899 1004.96 353.573 1008.84 354.892V360.789L996.892 367.671C995.696 368.356 994.958 369.64 994.958 371.02V384.344L990.3 387.042C987.232 384.335 982.671 383.755 978.944 385.917C974.242 388.642 972.643 394.653 975.341 399.355C978.048 404.058 984.033 405.675 988.718 402.959C992.453 400.797 994.229 396.543 993.429 392.518L997.709 390.03L1010.07 397.149C1010.66 397.492 1011.33 397.668 1012 397.668C1012.67 397.668 1013.34 397.492 1013.93 397.149L1026.28 390.039L1030.56 392.526C1029.76 396.543 1031.55 400.806 1035.27 402.968C1039.96 405.684 1045.95 404.075 1048.65 399.364C1051.36 394.653 1049.76 388.642 1045.07 385.926ZM985.923 398.09C985.446 398.366 984.918 398.546 984.371 398.618C983.824 398.689 983.268 398.652 982.736 398.509C982.203 398.365 981.704 398.117 981.268 397.78C980.831 397.442 980.466 397.022 980.192 396.543C979.032 394.53 979.718 391.946 981.731 390.786C982.208 390.51 982.735 390.33 983.282 390.258C983.829 390.187 984.385 390.224 984.918 390.367C985.45 390.511 985.949 390.759 986.386 391.096C986.822 391.433 987.188 391.854 987.461 392.333C988.621 394.346 987.936 396.93 985.923 398.09ZM1007.78 345.566C1007.8 344.462 1008.26 343.411 1009.05 342.639C1009.84 341.866 1010.9 341.433 1012 341.433C1013.1 341.433 1014.16 341.866 1014.95 342.639C1015.74 343.411 1016.2 344.462 1016.22 345.566C1016.2 346.67 1015.74 347.722 1014.95 348.494C1014.16 349.267 1013.1 349.7 1012 349.7C1010.9 349.7 1009.84 349.267 1009.05 348.494C1008.26 347.722 1007.8 346.67 1007.78 345.566ZM1022.72 384.783L1012 390.962L1001.28 384.783V372.443L1012 366.265L1022.72 372.443V384.783ZM1043.81 396.552C1042.65 398.564 1040.08 399.259 1038.08 398.099C1036.07 396.938 1035.38 394.354 1036.54 392.342C1037.7 390.329 1040.27 389.635 1042.27 390.795C1044.28 391.955 1044.97 394.53 1043.81 396.552Z" fill="url(#paint9_linear_2547_8750)" fill-opacity="0.5"/>
<path d="M1033.78 387.664L1033.47 387.483L1028.81 384.785L1028.56 384.641V384.353V371.02C1028.56 369.817 1027.92 368.7 1026.88 368.105L1026.88 368.104L1014.92 361.222L1014.67 361.078V360.789V354.892V354.533L1015.01 354.418C1018.7 353.166 1021.35 349.679 1021.35 345.566C1021.35 340.402 1017.17 336.223 1012.01 336.223C1006.84 336.223 1002.67 340.402 1002.67 345.566C1002.67 349.679 1005.32 353.166 1009.01 354.418L1009.34 354.533V354.892V360.789V361.078L1009.09 361.222L997.141 368.104L997.14 368.105C996.102 368.7 995.458 369.817 995.458 371.02V384.344V384.632L995.209 384.776L990.55 387.475L990.239 387.655L989.969 387.417C987.058 384.848 982.73 384.299 979.195 386.349L979.195 386.35C974.732 388.936 973.213 394.642 975.775 399.107C978.345 403.57 984.024 405.102 988.467 402.526L988.467 402.526C992.011 400.475 993.698 396.438 992.938 392.615L992.869 392.265L993.178 392.085L997.458 389.598L997.708 389.453L997.959 389.597L1010.32 396.716L1033.78 387.664ZM1033.78 387.664L1034.05 387.426M1033.78 387.664L1034.05 387.426M1034.05 387.426C1036.96 384.857 1041.28 384.307 1044.82 386.359C1049.27 388.935 1050.79 394.642 1048.22 399.115L1048.22 399.116C1045.66 403.586 1039.97 405.112 1035.52 402.535C1031.99 400.484 1030.29 396.438 1031.05 392.624L1031.12 392.274L1030.81 392.094L1026.53 389.607L1026.28 389.461M1034.05 387.426L1026.28 389.461M1026.28 389.461L1026.03 389.606M1026.28 389.461L1026.03 389.606M1026.03 389.606L1013.68 396.716L1026.03 389.606ZM1007.28 345.556L1007.28 345.566L1007.28 345.577C1007.31 346.811 1007.81 347.987 1008.7 348.851C1009.58 349.716 1010.77 350.2 1012 350.2C1013.24 350.2 1014.42 349.716 1015.3 348.851C1016.19 347.987 1016.69 346.811 1016.72 345.577L1016.72 345.566L1016.72 345.556C1016.69 344.321 1016.19 343.146 1015.3 342.281C1014.42 341.417 1013.24 340.933 1012 340.933C1010.77 340.933 1009.58 341.417 1008.7 342.281C1007.81 343.146 1007.31 344.321 1007.28 345.556ZM1022.97 385.216L1023.22 385.072V384.783V372.443V372.154L1022.97 372.01L1012.25 365.831L1012 365.688L1011.75 365.831L1001.03 372.01L1000.78 372.154V372.443V384.783V385.072L1001.03 385.216L1011.75 391.395L1012 391.539L1012.25 391.395L1022.97 385.216ZM1044.24 396.801L1044.24 396.801C1045.54 394.542 1044.77 391.662 1042.52 390.362C1040.28 389.062 1037.4 389.842 1036.11 392.092C1034.81 394.344 1035.58 397.233 1037.83 398.531C1040.07 399.831 1042.94 399.052 1044.24 396.801ZM1012 397.168C1011.42 397.168 1010.84 397.015 1010.32 396.716L1013.68 396.716C1013.16 397.015 1012.58 397.168 1012 397.168ZM984.436 399.113C985.049 399.033 985.639 398.832 986.173 398.523C988.426 397.224 989.191 394.334 987.895 392.084C987.589 391.548 987.18 391.078 986.691 390.701C986.203 390.323 985.644 390.046 985.048 389.885C984.452 389.724 983.829 389.682 983.217 389.763C982.605 389.843 982.015 390.044 981.48 390.353C979.228 391.652 978.462 394.542 979.759 396.792C980.065 397.328 980.474 397.798 980.962 398.175C981.451 398.553 982.009 398.83 982.606 398.991C983.202 399.152 983.824 399.194 984.436 399.113Z" stroke="url(#paint10_linear_2547_8750)"/>
</g>
<g filter="url(#filter7_b_2547_8750)">
<path d="M793.278 334.344L793.28 334.345L822.155 350.144C822.902 350.553 823.526 351.155 823.961 351.888C824.395 352.621 824.625 353.457 824.625 354.309C824.625 354.309 824.625 354.309 824.625 354.309V385.687C824.623 386.537 824.393 387.371 823.958 388.102C823.524 388.834 822.901 389.435 822.155 389.843L822.155 389.843L793.28 405.649L793.278 405.65C792.581 406.035 791.797 406.237 791 406.237C790.203 406.237 789.419 406.035 788.722 405.65L788.72 405.649L759.845 389.843L759.845 389.843C759.099 389.435 758.476 388.834 758.042 388.102C757.607 387.371 757.377 386.537 757.375 385.687V354.306C757.377 353.456 757.607 352.622 758.042 351.891C758.476 351.16 759.099 350.559 759.845 350.151L759.845 350.151L788.72 334.345L788.722 334.344C789.419 333.958 790.203 333.756 791 333.756C791.797 333.756 792.581 333.958 793.278 334.344ZM791.24 338.061L791 337.93L790.76 338.061L780.988 343.406L780.187 343.845L780.988 344.284L807.353 358.721L807.593 358.853L807.833 358.721L817.605 353.376L818.406 352.938L817.605 352.499L791.24 338.061ZM790.76 367.814L791 367.945L791.24 367.814L802.367 361.72L803.168 361.282L802.367 360.843L776.002 346.406L775.762 346.274L775.522 346.406L764.395 352.499L763.594 352.938L764.395 353.376L790.76 367.814ZM820.115 386.139L820.375 385.997V385.701V385.688V357.548V356.704L819.635 357.109L809.135 362.854L808.875 362.997V363.293V377.875C808.875 378.439 808.651 378.979 808.253 379.378C807.854 379.776 807.314 380 806.75 380C806.186 380 805.646 379.776 805.247 379.378C804.849 378.979 804.625 378.439 804.625 377.875V366.167V365.324L803.885 365.729L793.385 371.474L793.125 371.617V371.913V400.069V400.913L793.865 400.508L820.115 386.139Z" fill="url(#paint11_linear_2547_8750)" fill-opacity="0.75" stroke="url(#paint12_linear_2547_8750)"/>
<g filter="url(#filter8_b_2547_8750)">
<rect width="34.641" height="34.641" rx="4" transform="matrix(0.866025 0.5 -2.20305e-08 1 751 358)" fill="url(#paint13_linear_2547_8750)" fill-opacity="0.45"/>
</g>
</g>
<g clip-path="url(#clip1_2547_8750)">
<rect x="523.29" y="357.742" width="9.30325" height="4.65162" fill="#94A3B8"/>
<rect x="535.916" y="357.742" width="15.2839" height="4.65162" fill="#94A3B8"/>
</g>
<g clip-path="url(#clip2_2547_8750)">
<rect x="510" y="367.045" width="15.2839" height="4.65162" fill="#94A3B8"/>
<rect x="528.606" y="367.045" width="22.5936" height="4.65162" fill="#94A3B8"/>
</g>
<g clip-path="url(#clip3_2547_8750)">
<rect x="519.968" y="376.348" width="18.6065" height="4.65162" fill="#94A3B8"/>
<rect x="541.897" y="376.348" width="9.30325" height="4.65162" fill="#94A3B8"/>
</g>
<g clip-path="url(#clip4_2547_8750)" filter="url(#filter9_b_2547_8750)">
<g filter="url(#filter10_b_2547_8750)">
<path d="M577.958 405.916C558.233 405.916 542 389.683 542 369.958C542 350.233 558.233 334 577.958 334C597.683 334 613.916 350.233 613.916 369.958C613.912 377.866 611.282 385.549 606.44 391.801L612.626 397.987C613.505 398.866 614 400.06 614 401.305C614 403.882 611.882 406 609.305 406C608.06 406 606.866 405.505 605.987 404.626L599.801 398.44C593.549 403.282 585.866 405.912 577.958 405.916ZM597.95 387.913C602.403 382.992 604.872 376.594 604.88 369.958C604.88 355.189 592.727 343.036 577.958 343.036C569.852 343.036 562.535 346.696 557.582 352.441H573.347V359.815H553.043C552.308 361.595 551.769 363.45 551.435 365.347H569.66V372.724H551.18C551.441 375.259 552.071 377.743 553.043 380.101H565.973V387.475H557.582C562.535 393.22 569.852 396.88 577.958 396.88C584.828 396.88 591.134 394.249 595.913 389.95C596.366 389.077 597.077 388.366 597.95 387.913ZM569.66 387.475H591.788V380.101H569.66V387.475ZM588.101 372.724H602.852V365.347H588.101V372.724ZM573.347 372.724H582.569V365.347H573.347V372.724ZM578.879 359.815H593.633V352.441H578.879V359.815Z" fill="url(#paint14_linear_2547_8750)" fill-opacity="0.5"/>
<path d="M606.045 391.495L605.775 391.843L606.086 392.155L612.272 398.341C613.058 399.126 613.5 400.193 613.5 401.305C613.5 403.606 611.606 405.5 609.305 405.5C608.193 405.5 607.126 405.058 606.341 404.272L600.155 398.086L599.843 397.775L599.495 398.045C593.33 402.819 585.755 405.412 577.958 405.416C558.509 405.416 542.5 389.407 542.5 369.958C542.5 350.509 558.509 334.5 577.958 334.5C597.407 334.5 613.416 350.509 613.416 369.958C613.412 377.755 610.819 385.33 606.045 391.495ZM598.18 388.357L598.26 388.315L598.321 388.248C602.857 383.236 605.372 376.719 605.38 369.959V369.958C605.38 354.913 593.003 342.536 577.958 342.536C569.698 342.536 562.246 346.266 557.203 352.115L556.491 352.941H557.582H572.847V359.315H553.043H552.709L552.581 359.624C551.832 361.438 551.283 363.328 550.943 365.26L550.839 365.847H551.435H569.16V372.224H551.18H550.626L550.683 372.775C550.949 375.359 551.591 377.89 552.581 380.292L552.708 380.601H553.043H565.473V386.975H557.582H556.491L557.203 387.801C562.246 393.65 569.698 397.38 577.958 397.38C584.958 397.38 591.381 394.699 596.247 390.322L596.315 390.261L596.357 390.18C596.762 389.399 597.399 388.762 598.18 388.357ZM591.288 386.975H570.16V380.601H591.288V386.975ZM602.352 372.224H588.601V365.847H602.352V372.224ZM582.069 372.224H573.847V365.847H582.069V372.224ZM593.133 359.315H579.379V352.941H593.133V359.315Z" stroke="url(#paint15_linear_2547_8750)"/>
</g>
</g>
<path d="M108.668 468L115.78 449.24H112.42L106.82 464.64H106.596L100.94 449.24H97.5515L104.664 468H108.668ZM122.141 468.28C125.893 468.28 128.385 466.432 128.385 463.576V463.324H125.389V463.548C125.389 464.808 124.493 465.592 122.169 465.592C119.257 465.592 118.333 464.304 118.221 461.756H128.329C128.413 461.336 128.497 460.58 128.497 459.852C128.497 456.044 125.865 453.804 122.113 453.804C117.969 453.804 115.393 456.716 115.393 461.028C115.393 465.368 117.549 468.28 122.141 468.28ZM122.057 456.352C124.437 456.352 125.725 457.36 125.613 459.74H118.249C118.417 457.584 119.425 456.352 122.057 456.352ZM133.934 468V458.928C133.934 457.08 134.606 456.38 136.426 456.38C138.19 456.38 138.722 457.052 138.722 458.9V459.46H141.746V458.536C141.746 455.932 140.626 453.804 137.714 453.804C135.67 453.804 134.382 454.924 133.822 456.212H133.682V454H130.91V468H133.934ZM149.723 468.28C153.251 468.28 155.295 466.768 155.295 464.192C155.295 461.896 153.895 460.692 151.207 460.16L148.855 459.712C146.895 459.32 146.391 459.012 146.391 457.948C146.391 456.884 146.923 456.296 149.135 456.296C151.627 456.296 152.075 457.22 152.075 458.508V458.844H154.959V458.592C154.959 455.428 152.495 453.804 149.219 453.804C145.579 453.804 143.507 455.484 143.507 458.004C143.507 460.524 145.075 461.644 147.567 462.092L149.723 462.456C151.767 462.82 152.439 463.156 152.439 464.276C152.439 465.312 152.019 465.816 149.779 465.816C147.119 465.816 146.447 465.256 146.447 463.744V463.24H143.535V463.296C143.535 466.684 145.663 468.28 149.723 468.28ZM160.48 452.32V449.24H157.456L157.484 452.32H160.48ZM160.508 468V454H157.484V468H160.508ZM169.532 468.28C173.788 468.28 176.364 465.368 176.364 461.028C176.364 456.716 173.788 453.804 169.532 453.804C165.248 453.804 162.588 456.716 162.588 461.028C162.588 465.368 165.248 468.28 169.532 468.28ZM169.532 465.592C166.592 465.592 165.556 464.164 165.556 461.028C165.556 457.92 166.592 456.492 169.532 456.492C172.444 456.492 173.452 457.92 173.452 461.028C173.452 464.164 172.444 465.592 169.532 465.592ZM181.649 468V459.964C181.649 457.36 182.769 456.408 185.233 456.408C187.781 456.408 188.565 457.444 188.565 459.936V468H191.589V459.264C191.589 456.1 189.965 453.804 186.353 453.804C183.637 453.804 182.153 455.204 181.509 456.688H181.397V454.084H178.625V468H181.649Z" fill="white"/>
<line x1="221.5" y1="458.5" x2="285.5" y2="458.5" stroke="#94A3B8"/>
<path d="M325.55 468L332.662 449.24H329.302L323.702 464.64H323.478L317.822 449.24H314.434L321.546 468H325.55ZM336.753 468.28C339.385 468.28 340.981 467.132 341.793 465.816H341.933V468H344.733V459.544C344.733 456.156 342.773 453.804 338.881 453.804C335.157 453.804 332.721 456.044 332.721 459.152V459.432H335.633V459.012C335.633 457.164 336.501 456.464 338.713 456.464C340.897 456.464 341.849 457.08 341.849 459.152V459.908L336.977 460.636C334.009 461.056 332.329 462.26 332.329 464.556C332.329 466.992 334.261 468.28 336.753 468.28ZM335.269 464.332C335.269 463.296 335.829 462.932 337.425 462.708L341.849 462.036V462.288C341.849 465.088 339.693 465.872 337.733 465.872C335.969 465.872 335.269 465.424 335.269 464.332ZM350.653 468V449.24H347.629V468H350.653ZM356.445 452.32V449.24H353.421L353.449 452.32H356.445ZM356.473 468V454H353.449V468H356.473ZM364.685 468.28C367.065 468.28 368.605 467.3 369.277 465.704H369.389V468H372.161V449.24H369.165V456.24H369.081C368.465 454.98 366.981 453.804 364.517 453.804C360.681 453.804 358.553 456.632 358.553 461.028C358.553 465.452 360.709 468.28 364.685 468.28ZM361.577 461.028C361.577 457.612 362.697 456.38 365.357 456.38C367.821 456.38 369.165 457.472 369.165 459.796V462.288C369.165 464.612 367.821 465.704 365.357 465.704C362.669 465.704 361.577 464.472 361.577 461.028ZM378.808 468.28C381.44 468.28 383.036 467.132 383.848 465.816H383.988V468H386.788V459.544C386.788 456.156 384.828 453.804 380.936 453.804C377.212 453.804 374.776 456.044 374.776 459.152V459.432H377.688V459.012C377.688 457.164 378.556 456.464 380.768 456.464C382.952 456.464 383.904 457.08 383.904 459.152V459.908L379.032 460.636C376.064 461.056 374.384 462.26 374.384 464.556C374.384 466.992 376.316 468.28 378.808 468.28ZM377.324 464.332C377.324 463.296 377.884 462.932 379.48 462.708L383.904 462.036V462.288C383.904 465.088 381.748 465.872 379.788 465.872C378.024 465.872 377.324 465.424 377.324 464.332ZM395.343 468C396.295 468 397.247 467.888 397.835 467.748V465.284H396.127C394.251 465.284 393.635 465.032 393.635 463.576V456.604H397.835V454.084H393.635V450.64H391.311L390.667 454.084H388.287V456.604H390.611V463.716C390.611 466.852 392.235 468 395.343 468ZM405.578 468.28C409.33 468.28 411.822 466.432 411.822 463.576V463.324H408.826V463.548C408.826 464.808 407.93 465.592 405.606 465.592C402.694 465.592 401.77 464.304 401.658 461.756H411.766C411.85 461.336 411.934 460.58 411.934 459.852C411.934 456.044 409.302 453.804 405.55 453.804C401.406 453.804 398.83 456.716 398.83 461.028C398.83 465.368 400.986 468.28 405.578 468.28ZM405.494 456.352C407.874 456.352 409.162 457.36 409.05 459.74H401.686C401.854 457.584 402.862 456.352 405.494 456.352Z" fill="white"/>
<line x1="441.5" y1="458.5" x2="505.5" y2="458.5" stroke="#94A3B8"/>
<path d="M539.244 468V460.776H541.456C543.696 460.776 544.48 461.532 545.348 463.156L548.008 468H551.508L548.708 462.792C548.008 461.504 547.196 460.664 545.824 460.216V459.992C549.128 459.824 551.032 457.948 551.032 454.84C551.032 451.284 548.428 449.24 544.284 449.24H536.22V468H539.244ZM539.244 451.956H544.648C547.084 451.956 548.008 452.908 548.008 455.12C548.008 457.388 547.084 458.284 544.648 458.284H539.244V451.956ZM559.004 468.28C562.756 468.28 565.248 466.432 565.248 463.576V463.324H562.252V463.548C562.252 464.808 561.356 465.592 559.032 465.592C556.12 465.592 555.196 464.304 555.084 461.756H565.192C565.276 461.336 565.36 460.58 565.36 459.852C565.36 456.044 562.728 453.804 558.976 453.804C554.832 453.804 552.256 456.716 552.256 461.028C552.256 465.368 554.412 468.28 559.004 468.28ZM558.92 456.352C561.3 456.352 562.588 457.36 562.476 459.74H555.112C555.28 457.584 556.288 456.352 558.92 456.352ZM575.263 468L580.863 454.084H577.587L573.499 465.116H573.303L569.243 454.084H565.883L571.455 468H575.263ZM585.011 452.32V449.24H581.987L582.015 452.32H585.011ZM585.039 468V454H582.015V468H585.039ZM593.867 468.28C597.619 468.28 600.111 466.432 600.111 463.576V463.324H597.115V463.548C597.115 464.808 596.219 465.592 593.895 465.592C590.983 465.592 590.059 464.304 589.947 461.756H600.055C600.139 461.336 600.223 460.58 600.223 459.852C600.223 456.044 597.591 453.804 593.839 453.804C589.695 453.804 587.119 456.716 587.119 461.028C587.119 465.368 589.275 468.28 593.867 468.28ZM593.783 456.352C596.163 456.352 597.451 457.36 597.339 459.74H589.975C590.143 457.584 591.151 456.352 593.783 456.352ZM608.278 468L610.798 460.244L611.694 456.744H611.918L612.842 460.244L615.334 468H619.254L622.698 454.084H619.562L617.938 461.84L617.378 465.48H617.154L616.286 461.84L613.822 454.084H609.902L607.466 461.812L606.542 465.48H606.318L605.758 461.812L604.162 454.084H600.886L604.33 468H608.278Z" fill="white"/>
<line x1="651.5" y1="458.5" x2="715.5" y2="458.5" stroke="#94A3B8"/>
<path d="M748.799 468V461.952H753.755C757.675 461.952 760.559 459.628 760.559 455.596C760.559 451.564 757.675 449.24 753.755 449.24H745.775V468H748.799ZM754.119 451.956C756.583 451.956 757.563 452.908 757.563 455.596C757.563 458.284 756.583 459.236 754.119 459.236H748.799V451.956H754.119ZM765.96 468.28C768.592 468.28 770.188 467.132 771 465.816H771.14V468H773.94V459.544C773.94 456.156 771.98 453.804 768.088 453.804C764.364 453.804 761.928 456.044 761.928 459.152V459.432H764.84V459.012C764.84 457.164 765.708 456.464 767.92 456.464C770.104 456.464 771.056 457.08 771.056 459.152V459.908L766.184 460.636C763.216 461.056 761.536 462.26 761.536 464.556C761.536 466.992 763.468 468.28 765.96 468.28ZM764.476 464.332C764.476 463.296 765.036 462.932 766.632 462.708L771.056 462.036V462.288C771.056 465.088 768.9 465.872 766.94 465.872C765.176 465.872 764.476 465.424 764.476 464.332ZM783.025 468.308C786.777 468.308 789.325 466.012 789.325 462.708V462.456H786.329V462.624C786.329 464.668 785.265 465.564 782.941 465.564C780.253 465.564 779.217 464.08 779.217 461.056C779.217 458.032 780.253 456.52 782.941 456.52C785.265 456.52 786.329 457.444 786.329 459.488V459.656H789.325V459.404C789.325 456.072 786.805 453.804 783.137 453.804C778.769 453.804 776.221 456.716 776.221 461.056C776.221 465.368 778.685 468.308 783.025 468.308ZM794.653 468V462.316H797.425L801.065 468H804.593L799.833 460.664L804.677 454.084H801.121L797.397 459.6H794.653V449.24H791.629V468H794.653ZM809.683 468.28C812.315 468.28 813.911 467.132 814.723 465.816H814.863V468H817.663V459.544C817.663 456.156 815.703 453.804 811.811 453.804C808.087 453.804 805.651 456.044 805.651 459.152V459.432H808.563V459.012C808.563 457.164 809.431 456.464 811.643 456.464C813.827 456.464 814.779 457.08 814.779 459.152V459.908L809.907 460.636C806.939 461.056 805.259 462.26 805.259 464.556C805.259 466.992 807.191 468.28 809.683 468.28ZM808.199 464.332C808.199 463.296 808.759 462.932 810.355 462.708L814.779 462.036V462.288C814.779 465.088 812.623 465.872 810.663 465.872C808.899 465.872 808.199 465.424 808.199 464.332ZM825.908 466.684C828.176 466.684 829.8 465.564 830.444 464.22H830.556V466.992C830.556 469.568 829.884 470.352 827.168 470.352C824.368 470.352 823.668 469.708 823.668 467.804H820.672C820.672 471.164 823.136 473.04 827.084 473.04C831.144 473.04 833.552 471.108 833.552 466.992V454.084H830.78V456.38H830.668C829.996 454.756 828.26 453.804 826.02 453.804C822.1 453.804 819.944 456.324 819.944 460.244C819.944 464.164 822.072 466.684 825.908 466.684ZM822.968 460.244C822.968 457.388 824.116 456.38 826.72 456.38C829.044 456.38 830.556 457.472 830.556 459.796V460.664C830.556 463.016 829.044 464.108 826.776 464.108C824.144 464.108 822.968 463.1 822.968 460.244ZM842.578 468.28C846.33 468.28 848.822 466.432 848.822 463.576V463.324H845.826V463.548C845.826 464.808 844.93 465.592 842.606 465.592C839.694 465.592 838.77 464.304 838.658 461.756H848.766C848.85 461.336 848.934 460.58 848.934 459.852C848.934 456.044 846.302 453.804 842.55 453.804C838.406 453.804 835.83 456.716 835.83 461.028C835.83 465.368 837.986 468.28 842.578 468.28ZM842.494 456.352C844.874 456.352 846.162 457.36 846.05 459.74H838.686C838.854 457.584 839.862 456.352 842.494 456.352Z" fill="white"/>
<line x1="878.5" y1="458.5" x2="942.5" y2="458.5" stroke="#94A3B8"/>
<path d="M979.81 468C985.606 468 989.302 464.416 989.302 458.62C989.302 452.824 985.606 449.24 979.81 449.24H973.146V468H979.81ZM979.81 451.956C984.29 451.956 986.082 453.804 986.082 458.62C986.082 463.436 984.29 465.284 979.81 465.284H976.17V451.956H979.81ZM997.899 468.28C1001.65 468.28 1004.14 466.432 1004.14 463.576V463.324H1001.15V463.548C1001.15 464.808 1000.25 465.592 997.927 465.592C995.015 465.592 994.091 464.304 993.979 461.756H1004.09C1004.17 461.336 1004.25 460.58 1004.25 459.852C1004.25 456.044 1001.62 453.804 997.871 453.804C993.727 453.804 991.151 456.716 991.151 461.028C991.151 465.368 993.307 468.28 997.899 468.28ZM997.815 456.352C1000.19 456.352 1001.48 457.36 1001.37 459.74H994.007C994.175 457.584 995.183 456.352 997.815 456.352ZM1009.55 472.844V465.844H1009.64C1010.25 467.132 1011.79 468.28 1014.28 468.28C1018.06 468.28 1020.16 465.452 1020.16 461.056C1020.16 456.632 1018.01 453.804 1014.09 453.804C1011.68 453.804 1010.08 454.756 1009.44 456.38H1009.3V454.084H1006.56V472.844H1009.55ZM1009.55 462.288V459.796C1009.55 457.472 1010.9 456.38 1013.36 456.38C1016.05 456.38 1017.14 457.612 1017.14 461.056C1017.14 464.472 1016.02 465.704 1013.36 465.704C1010.9 465.704 1009.55 464.612 1009.55 462.288ZM1025.61 468V449.24H1022.58V468H1025.61ZM1034.84 468.28C1039.1 468.28 1041.68 465.368 1041.68 461.028C1041.68 456.716 1039.1 453.804 1034.84 453.804C1030.56 453.804 1027.9 456.716 1027.9 461.028C1027.9 465.368 1030.56 468.28 1034.84 468.28ZM1034.84 465.592C1031.9 465.592 1030.87 464.164 1030.87 461.028C1030.87 457.92 1031.9 456.492 1034.84 456.492C1037.76 456.492 1038.76 457.92 1038.76 461.028C1038.76 464.164 1037.76 465.592 1034.84 465.592ZM1045.58 472.76C1047.76 472.76 1049.11 472.116 1050.14 469.652L1056.72 454.084H1053.39L1050.84 460.832L1049.69 463.856H1049.47L1048.21 460.832L1045.41 454.084H1042.08L1047.99 467.636L1047.45 468.812C1047.01 469.848 1046.59 470.044 1045.38 470.044H1043.48V472.508C1043.95 472.648 1044.82 472.76 1045.58 472.76Z" fill="white"/>
<defs>
<filter id="filter0_b_2547_8750" x="90" y="345" width="111" height="62" filterUnits="userSpaceOnUse" color-interpolation-filters="sRGB">
<feFlood flood-opacity="0" result="BackgroundImageFix"/>
<feGaussianBlur in="BackgroundImageFix" stdDeviation="8.5"/>
<feComposite in2="SourceAlpha" operator="in" result="effect1_backgroundBlur_2547_8750"/>
<feBlend mode="normal" in="SourceGraphic" in2="effect1_backgroundBlur_2547_8750" result="shape"/>
</filter>
<filter id="filter1_b_2547_8750" x="103" y="332" width="85" height="49" filterUnits="userSpaceOnUse" color-interpolation-filters="sRGB">
<feFlood flood-opacity="0" result="BackgroundImageFix"/>
<feGaussianBlur in="BackgroundImageFix" stdDeviation="2"/>
<feComposite in2="SourceAlpha" operator="in" result="effect1_backgroundBlur_2547_8750"/>
<feBlend mode="normal" in="SourceGraphic" in2="effect1_backgroundBlur_2547_8750" result="shape"/>
</filter>
<filter id="filter2_b_2547_8750" x="307" y="345" width="111" height="62" filterUnits="userSpaceOnUse" color-interpolation-filters="sRGB">
<feFlood flood-opacity="0" result="BackgroundImageFix"/>
<feGaussianBlur in="BackgroundImageFix" stdDeviation="8.5"/>
<feComposite in2="SourceAlpha" operator="in" result="effect1_backgroundBlur_2547_8750"/>
<feBlend mode="normal" in="SourceGraphic" in2="effect1_backgroundBlur_2547_8750" result="shape"/>
</filter>
<filter id="filter3_b_2547_8750" x="320" y="332" width="85" height="49" filterUnits="userSpaceOnUse" color-interpolation-filters="sRGB">
<feFlood flood-opacity="0" result="BackgroundImageFix"/>
<feGaussianBlur in="BackgroundImageFix" stdDeviation="2"/>
<feComposite in2="SourceAlpha" operator="in" result="effect1_backgroundBlur_2547_8750"/>
<feBlend mode="normal" in="SourceGraphic" in2="effect1_backgroundBlur_2547_8750" result="shape"/>
</filter>
<filter id="filter4_b_2547_8750" x="378" y="369" width="40" height="40" filterUnits="userSpaceOnUse" color-interpolation-filters="sRGB">
<feFlood flood-opacity="0" result="BackgroundImageFix"/>
<feGaussianBlur in="BackgroundImageFix" stdDeviation="2"/>
<feComposite in2="SourceAlpha" operator="in" result="effect1_backgroundBlur_2547_8750"/>
<feBlend mode="normal" in="SourceGraphic" in2="effect1_backgroundBlur_2547_8750" result="shape"/>
</filter>
<filter id="filter5_b_2547_8750" x="1008" y="364.2" width="52.1001" height="52.1001" filterUnits="userSpaceOnUse" color-interpolation-filters="sRGB">
<feFlood flood-opacity="0" result="BackgroundImageFix"/>
<feGaussianBlur in="BackgroundImageFix" stdDeviation="2"/>
<feComposite in2="SourceAlpha" operator="in" result="effect1_backgroundBlur_2547_8750"/>
<feBlend mode="normal" in="SourceGraphic" in2="effect1_backgroundBlur_2547_8750" result="shape"/>
</filter>
<filter id="filter6_b_2547_8750" x="970.031" y="331.723" width="83.9365" height="76.5649" filterUnits="userSpaceOnUse" color-interpolation-filters="sRGB">
<feFlood flood-opacity="0" result="BackgroundImageFix"/>
<feGaussianBlur in="BackgroundImageFix" stdDeviation="2"/>
<feComposite in2="SourceAlpha" operator="in" result="effect1_backgroundBlur_2547_8750"/>
<feBlend mode="normal" in="SourceGraphic" in2="effect1_backgroundBlur_2547_8750" result="shape"/>
</filter>
<filter id="filter7_b_2547_8750" x="745" y="324" width="92" height="92" filterUnits="userSpaceOnUse" color-interpolation-filters="sRGB">
<feFlood flood-opacity="0" result="BackgroundImageFix"/>
<feGaussianBlur in="BackgroundImageFix" stdDeviation="2"/>
<feComposite in2="SourceAlpha" operator="in" result="effect1_backgroundBlur_2547_8750"/>
<feBlend mode="normal" in="SourceGraphic" in2="effect1_backgroundBlur_2547_8750" result="shape"/>
</filter>
<filter id="filter8_b_2547_8750" x="747" y="355.527" width="38" height="56.9077" filterUnits="userSpaceOnUse" color-interpolation-filters="sRGB">
<feFlood flood-opacity="0" result="BackgroundImageFix"/>
<feGaussianBlur in="BackgroundImageFix" stdDeviation="2"/>
<feComposite in2="SourceAlpha" operator="in" result="effect1_backgroundBlur_2547_8750"/>
<feBlend mode="normal" in="SourceGraphic" in2="effect1_backgroundBlur_2547_8750" result="shape"/>
</filter>
<filter id="filter9_b_2547_8750" x="538" y="330" width="80" height="80" filterUnits="userSpaceOnUse" color-interpolation-filters="sRGB">
<feFlood flood-opacity="0" result="BackgroundImageFix"/>
<feGaussianBlur in="BackgroundImageFix" stdDeviation="2"/>
<feComposite in2="SourceAlpha" operator="in" result="effect1_backgroundBlur_2547_8750"/>
<feBlend mode="normal" in="SourceGraphic" in2="effect1_backgroundBlur_2547_8750" result="shape"/>
</filter>
<filter id="filter10_b_2547_8750" x="538" y="330" width="80" height="80" filterUnits="userSpaceOnUse" color-interpolation-filters="sRGB">
<feFlood flood-opacity="0" result="BackgroundImageFix"/>
<feGaussianBlur in="BackgroundImageFix" stdDeviation="2"/>
<feComposite in2="SourceAlpha" operator="in" result="effect1_backgroundBlur_2547_8750"/>
<feBlend mode="normal" in="SourceGraphic" in2="effect1_backgroundBlur_2547_8750" result="shape"/>
</filter>
<linearGradient id="paint0_linear_2547_8750" x1="107" y1="369.5" x2="186.5" y2="369" gradientUnits="userSpaceOnUse">
<stop stop-color="#94A3B8"/>
<stop offset="1" stop-color="#94A3B8" stop-opacity="0"/>
</linearGradient>
<linearGradient id="paint1_linear_2547_8750" x1="106" y1="356" x2="185.5" y2="357" gradientUnits="userSpaceOnUse">
<stop stop-color="#94A3B8"/>
<stop offset="0.192696" stop-color="#94A3B8" stop-opacity="0.807304"/>
<stop offset="1" stop-color="#94A3B8" stop-opacity="0"/>
</linearGradient>
<linearGradient id="paint2_linear_2547_8750" x1="106" y1="358" x2="198" y2="357" gradientUnits="userSpaceOnUse">
<stop stop-color="#D8D8D8"/>
<stop offset="1" stop-color="#5E5E5E" stop-opacity="0"/>
</linearGradient>
<linearGradient id="paint3_linear_2547_8750" x1="324" y1="369.5" x2="403.5" y2="369" gradientUnits="userSpaceOnUse">
<stop stop-color="#94A3B8"/>
<stop offset="1" stop-color="#94A3B8" stop-opacity="0"/>
</linearGradient>
<linearGradient id="paint4_linear_2547_8750" x1="323" y1="356" x2="402.5" y2="357" gradientUnits="userSpaceOnUse">
<stop stop-color="#94A3B8"/>
<stop offset="0.192696" stop-color="#94A3B8" stop-opacity="0.807304"/>
<stop offset="1" stop-color="#94A3B8" stop-opacity="0"/>
</linearGradient>
<linearGradient id="paint5_linear_2547_8750" x1="323" y1="358" x2="415" y2="357" gradientUnits="userSpaceOnUse">
<stop stop-color="#D8D8D8"/>
<stop offset="1" stop-color="#5E5E5E" stop-opacity="0"/>
</linearGradient>
<linearGradient id="paint6_linear_2547_8750" x1="385" y1="377" x2="409.333" y2="401.333" gradientUnits="userSpaceOnUse">
<stop stop-color="#94A3B8"/>
<stop offset="1" stop-color="#555B64"/>
</linearGradient>
<linearGradient id="paint7_linear_2547_8750" x1="385.5" y1="377" x2="407.5" y2="396.5" gradientUnits="userSpaceOnUse">
<stop stop-color="#C5E2FF"/>
<stop offset="1" stop-color="#F1F5F9" stop-opacity="0"/>
</linearGradient>
<linearGradient id="paint8_linear_2547_8750" x1="1016.13" y1="373.713" x2="1049.67" y2="407.247" gradientUnits="userSpaceOnUse">
<stop stop-color="#E5E5E5"/>
<stop offset="1" stop-color="#555B64"/>
</linearGradient>
<linearGradient id="paint9_linear_2547_8750" x1="988.6" y1="340.75" x2="1038.55" y2="393.4" gradientUnits="userSpaceOnUse">
<stop stop-color="#596679"/>
<stop offset="1" stop-color="#CBD4E0"/>
</linearGradient>
<linearGradient id="paint10_linear_2547_8750" x1="974.2" y1="341.65" x2="1056.55" y2="404.2" gradientUnits="userSpaceOnUse">
<stop stop-color="#E1E6EE"/>
<stop offset="1" stop-opacity="0"/>
</linearGradient>
<linearGradient id="paint11_linear_2547_8750" x1="791" y1="333.256" x2="791" y2="406.737" gradientUnits="userSpaceOnUse">
<stop stop-color="#CBD4E0"/>
<stop offset="1" stop-color="#374255"/>
</linearGradient>
<linearGradient id="paint12_linear_2547_8750" x1="753.62" y1="343.96" x2="818.72" y2="384.28" gradientUnits="userSpaceOnUse">
<stop stop-color="#E1E6EE"/>
<stop offset="1" stop-opacity="0"/>
</linearGradient>
<linearGradient id="paint13_linear_2547_8750" x1="-1.88266" y1="-2.00646e-07" x2="34.641" y2="34.641" gradientUnits="userSpaceOnUse">
<stop stop-color="#AFB7C3"/>
<stop offset="1" stop-color="#4A5361"/>
</linearGradient>
<linearGradient id="paint14_linear_2547_8750" x1="578" y1="334" x2="578" y2="406" gradientUnits="userSpaceOnUse">
<stop stop-color="#E0E6F0"/>
<stop offset="1" stop-color="#646D7E"/>
</linearGradient>
<linearGradient id="paint15_linear_2547_8750" x1="547.143" y1="340.857" x2="602.429" y2="395.286" gradientUnits="userSpaceOnUse">
<stop stop-color="#E1E6EE"/>
<stop offset="1" stop-color="#94A3B8" stop-opacity="0"/>
</linearGradient>
<clipPath id="clip0_2547_8750">
<rect x="446.759" y="105.701" width="48.5977" height="48.5977" rx="24.2989" fill="white"/>
</clipPath>
<clipPath id="clip1_2547_8750">
<rect width="41.2001" height="4.65162" fill="white" transform="translate(510 357.742)"/>
</clipPath>
<clipPath id="clip2_2547_8750">
<rect width="41.2001" height="4.65162" fill="white" transform="translate(510 367.045)"/>
</clipPath>
<clipPath id="clip3_2547_8750">
<rect width="41.2001" height="4.65162" fill="white" transform="translate(510 376.348)"/>
</clipPath>
<clipPath id="clip4_2547_8750">
<rect width="72" height="72" fill="white" transform="translate(542 334)"/>
</clipPath>
</defs>
</svg>
