<svg width="16" height="16" viewBox="0 0 16 16" fill="none" xmlns="http://www.w3.org/2000/svg">
<path fill-rule="evenodd" clip-rule="evenodd" d="M8.46105 0.931885C7.94341 0.931885 7.51988 1.35541 7.51988 1.87306V15.0495C7.51988 15.5672 7.94341 15.9907 8.46105 15.9907C8.9787 15.9907 9.40223 15.5672 9.40223 15.0495V1.87306C9.40223 1.35541 8.9787 0.931885 8.46105 0.931885ZM5.63752 3.75541H1.87282C1.35517 3.75541 0.931641 4.17894 0.931641 4.69659V6.57894C0.931641 7.09659 1.35517 7.52012 1.87282 7.52012H5.63752C6.15517 7.52012 6.5787 7.09659 6.5787 6.57894V4.69659C6.5787 4.17894 6.15517 3.75541 5.63752 3.75541ZM15.0493 3.75541H11.2846C10.7669 3.75541 10.3434 4.17894 10.3434 4.69659V6.57894C10.3434 7.09659 10.7669 7.52012 11.2846 7.52012H15.0493C15.5669 7.52012 15.9905 7.09659 15.9905 6.57894V4.69659C15.9905 4.17894 15.5669 3.75541 15.0493 3.75541ZM15.0493 6.57894H11.2846V4.69659H15.0493V6.57894ZM15.0493 9.40247H11.2846C10.7669 9.40247 10.3434 9.826 10.3434 10.3436V12.226C10.3434 12.7437 10.7669 13.1672 11.2846 13.1672H15.0493C15.5669 13.1672 15.9905 12.7437 15.9905 12.226V10.3436C15.9905 9.826 15.5669 9.40247 15.0493 9.40247ZM15.0493 12.226H11.2846V10.3436H15.0493V12.226ZM5.63752 9.40247H1.87282C1.35517 9.40247 0.931641 9.826 0.931641 10.3436V12.226C0.931641 12.7437 1.35517 13.1672 1.87282 13.1672H5.63752C6.15517 13.1672 6.5787 12.7437 6.5787 12.226V10.3436C6.5787 9.826 6.15517 9.40247 5.63752 9.40247Z" fill="#020617"/>
</svg>
